<svg width="31" height="31" viewBox="0 0 31 31" fill="none" xmlns="http://www.w3.org/2000/svg">
<path d="M15.7969 30.4844C24.0781 30.4844 30.9375 23.625 30.9375 15.3281C30.9375 7.04688 24.0625 0.1875 15.7812 0.1875C7.5 0.1875 0.640625 7.04688 0.640625 15.3281C0.640625 23.625 7.51562 30.4844 15.7969 30.4844ZM15.7969 27.7812C8.89062 27.7812 3.35938 22.25 3.35938 15.3281C3.35938 8.42188 8.875 2.875 15.7812 2.875C22.6875 2.875 28.2344 8.42188 28.25 15.3281C28.2656 22.25 22.7031 27.7812 15.7969 27.7812ZM15.6719 10.1562C16.7656 10.1562 17.625 9.28125 17.625 8.20312C17.625 7.09375 16.7656 6.23438 15.6719 6.23438C14.5938 6.23438 13.7188 7.09375 13.7188 8.20312C13.7188 9.28125 14.5938 10.1562 15.6719 10.1562ZM13.1875 23.4375H19.2031C19.8281 23.4375 20.3281 22.9844 20.3281 22.3438C20.3281 21.75 19.8281 21.2812 19.2031 21.2812H17.4375V13.9375C17.4375 13.1094 17.0156 12.5625 16.25 12.5625H13.4531C12.8281 12.5625 12.3438 13.0312 12.3438 13.625C12.3438 14.2656 12.8281 14.7188 13.4531 14.7188H15V21.2812H13.1875C12.5781 21.2812 12.0781 21.75 12.0781 22.3438C12.0781 22.9844 12.5781 23.4375 13.1875 23.4375Z" fill="black"/>
</svg>
