<svg width="16" height="13" viewBox="0 0 16 13" fill="none" xmlns="http://www.w3.org/2000/svg">
<path d="M9.81445 8.35938V9.55469H12.4277C14.1738 9.55469 15.2637 8.52344 15.2637 7.09375C15.2637 5.89258 14.5898 4.92578 13.4824 4.49219C13.4824 1.9668 11.666 0.150391 9.31641 0.150391C7.85156 0.150391 6.73242 0.894531 6.01758 1.91406C4.66992 1.5918 3.11719 2.59961 3.05273 4.16992C1.78125 4.39844 0.990234 5.46484 0.990234 6.81836C0.990234 8.33594 2.15039 9.55469 4.00781 9.55469H6.38672V8.35938H4.00781C2.85352 8.35938 2.20898 7.65039 2.20898 6.78906C2.20898 5.75781 2.90039 5.06055 4.01367 5.06055C4.0957 5.06055 4.13086 5.01367 4.125 4.9375C4.07227 3.30859 5.23242 2.75195 6.45117 3.10352C6.52148 3.12109 6.56836 3.10938 6.60352 3.04492C7.13086 2.07227 7.95703 1.35156 9.30469 1.35156C11.0156 1.35156 12.2461 2.70508 12.3281 4.30469C12.3457 4.61523 12.3223 4.94922 12.293 5.21875C12.2871 5.30078 12.3164 5.3418 12.3926 5.35352C13.4121 5.53516 14.0449 6.10938 14.0449 7.01758C14.0449 7.80859 13.5 8.35938 12.3867 8.35938H9.81445ZM8.10352 12.9941C8.25 12.9941 8.37891 12.9414 8.53125 12.8008L10.3828 11.0547C10.4883 10.9609 10.5352 10.8555 10.5352 10.709C10.5352 10.4336 10.3125 10.2402 10.0488 10.2402C9.9082 10.2402 9.7793 10.2988 9.67969 10.3984L8.93555 11.1484L8.58984 11.5645L8.6543 10.75V5.99805C8.6543 5.70508 8.4082 5.45312 8.10352 5.45312C7.79297 5.45312 7.54688 5.70508 7.54688 5.99805V10.75L7.61133 11.5703L7.26562 11.1484L6.52148 10.3984C6.42188 10.2988 6.28711 10.2402 6.15234 10.2402C5.88281 10.2402 5.66602 10.4336 5.66602 10.709C5.66602 10.8555 5.71289 10.9609 5.81836 11.0547L7.67578 12.8008C7.82227 12.9414 7.95703 12.9941 8.10352 12.9941Z" fill="#8D8D8D"/>
</svg>
