<svg width="26" height="33" viewBox="0 0 26 33" fill="none" xmlns="http://www.w3.org/2000/svg">
<path d="M5.42188 32.25H21.1562C24.2344 32.25 25.8125 30.6562 25.8125 27.5312V14.1875H14.9844C13.0938 14.1875 12.2031 13.2969 12.2031 11.4062V0.453125H5.42188C2.34375 0.453125 0.765625 2.04688 0.765625 5.15625V27.5312C0.765625 30.6719 2.34375 32.25 5.42188 32.25ZM15.0938 12.125H25.6406C25.5469 11.4844 25.0938 10.875 24.375 10.1406L16.25 1.875C15.5469 1.15625 14.9062 0.703125 14.2812 0.59375V11.2969C14.2812 11.8438 14.5469 12.125 15.0938 12.125ZM7.59375 20.5781C6.98438 20.5781 6.53125 20.125 6.53125 19.5469C6.53125 18.9531 6.98438 18.5156 7.59375 18.5156H19C19.5938 18.5156 20.0625 18.9531 20.0625 19.5469C20.0625 20.125 19.5938 20.5781 19 20.5781H7.59375ZM7.59375 26.2344C6.98438 26.2344 6.53125 25.7812 6.53125 25.1875C6.53125 24.6094 6.98438 24.1562 7.59375 24.1562H19C19.5938 24.1562 20.0625 24.6094 20.0625 25.1875C20.0625 25.7812 19.5938 26.2344 19 26.2344H7.59375Z" fill="black"/>
</svg>
