<svg width="11" height="14" viewBox="0 0 11 14" fill="none" xmlns="http://www.w3.org/2000/svg">
<path d="M2.25781 13.0391H8.18164C9.38867 13.0391 10.0273 12.3887 10.0273 11.1758V6.14258C10.0273 5.3457 9.91602 4.96484 9.41211 4.45508L6.58203 1.58398C6.0957 1.0918 5.69141 0.974609 4.95898 0.974609H2.25781C1.05664 0.974609 0.412109 1.61914 0.412109 2.83789V11.1758C0.412109 12.3945 1.05078 13.0391 2.25781 13.0391ZM2.375 11.8379C1.86523 11.8379 1.61328 11.5684 1.61328 11.0762V2.93164C1.61328 2.44531 1.86523 2.17578 2.38086 2.17578H4.67773V5.09961C4.67773 5.94922 5.09375 6.35938 5.9375 6.35938H8.82617V11.0762C8.82617 11.5684 8.57422 11.8379 8.05859 11.8379H2.375ZM6.04297 5.33398C5.80859 5.33398 5.70898 5.22852 5.70898 4.99414V2.31055L8.69141 5.33398H6.04297ZM7.12695 7.77148H3.21289C3.00195 7.77148 2.84961 7.92383 2.84961 8.12305C2.84961 8.32227 3.00195 8.48047 3.21289 8.48047H7.12695C7.33203 8.48047 7.48438 8.32227 7.48438 8.12305C7.48438 7.92383 7.33203 7.77148 7.12695 7.77148ZM7.12695 9.58789H3.21289C3.00195 9.58789 2.84961 9.74609 2.84961 9.94531C2.84961 10.1445 3.00195 10.2969 3.21289 10.2969H7.12695C7.33203 10.2969 7.48438 10.1445 7.48438 9.94531C7.48438 9.74609 7.33203 9.58789 7.12695 9.58789Z" fill="#A4A4A4"/>
</svg>
